<svg aria-hidden="true" xmlns="http://www.w3.org/2000/svg" xmlns:xlink="http://www.w3.org/1999/xlink"><symbol viewBox="0 0 17 17" id="blank" xmlns="http://www.w3.org/2000/svg">
<g clip-path="url(#aclip0_121_26938)">
<path d="M14.7 5.19922V14.6992C14.7 15.2297 14.4892 15.7384 14.1142 16.1134C13.7391 16.4885 13.2304 16.6992 12.7 16.6992H4.69995C4.16952 16.6992 3.66081 16.4885 3.28574 16.1134C2.91066 15.7384 2.69995 15.2297 2.69995 14.6992V2.69922C2.69995 2.16879 2.91066 1.66008 3.28574 1.28501C3.66081 0.909932 4.16952 0.699219 4.69995 0.699219H10.2L14.7 5.19922ZM11.7 5.19922C11.3021 5.19922 10.9206 5.04118 10.6393 4.75988C10.358 4.47857 10.2 4.09704 10.2 3.69922V1.69922H4.69995C4.43473 1.69922 4.18038 1.80458 3.99284 1.99211C3.80531 2.17965 3.69995 2.434 3.69995 2.69922V14.6992C3.69995 14.9644 3.80531 15.2188 3.99284 15.4063C4.18038 15.5939 4.43473 15.6992 4.69995 15.6992H12.7C12.9652 15.6992 13.2195 15.5939 13.4071 15.4063C13.5946 15.2188 13.7 14.9644 13.7 14.6992V5.19922H11.7Z"/>
<path d="M5.19995 13.1992C5.19995 13.0666 5.25263 12.9394 5.3464 12.8457C5.44017 12.7519 5.56734 12.6992 5.69995 12.6992H8.69995C8.83256 12.6992 8.95974 12.7519 9.0535 12.8457C9.14727 12.9394 9.19995 13.0666 9.19995 13.1992C9.19995 13.3318 9.14727 13.459 9.0535 13.5528C8.95974 13.6465 8.83256 13.6992 8.69995 13.6992H5.69995C5.56734 13.6992 5.44017 13.6465 5.3464 13.5528C5.25263 13.459 5.19995 13.3318 5.19995 13.1992ZM5.19995 11.1992C5.19995 11.0666 5.25263 10.9394 5.3464 10.8457C5.44017 10.7519 5.56734 10.6992 5.69995 10.6992H11.7C11.8326 10.6992 11.9597 10.7519 12.0535 10.8457C12.1473 10.9394 12.2 11.0666 12.2 11.1992C12.2 11.3318 12.1473 11.459 12.0535 11.5528C11.9597 11.6465 11.8326 11.6992 11.7 11.6992H5.69995C5.56734 11.6992 5.44017 11.6465 5.3464 11.5528C5.25263 11.459 5.19995 11.3318 5.19995 11.1992ZM6.83895 7.49122L8.16895 8.37722L10.023 6.52222C10.0601 6.485 10.108 6.46042 10.1599 6.45198C10.2117 6.44355 10.265 6.45168 10.312 6.47522L12.2 7.44922V9.19922C12.2 9.33183 12.1473 9.459 12.0535 9.55277C11.9597 9.64654 11.8326 9.69922 11.7 9.69922H5.69995C5.56734 9.69922 5.44017 9.64654 5.3464 9.55277C5.25263 9.459 5.19995 9.33183 5.19995 9.19922V8.69922C5.19995 8.69922 6.73995 7.42522 6.83895 7.49122ZM6.94995 6.69922C7.14886 6.69922 7.33963 6.6202 7.48028 6.47955C7.62093 6.3389 7.69995 6.14813 7.69995 5.94922C7.69995 5.75031 7.62093 5.55954 7.48028 5.41889C7.33963 5.27824 7.14886 5.19922 6.94995 5.19922C6.75104 5.19922 6.56027 5.27824 6.41962 5.41889C6.27897 5.55954 6.19995 5.75031 6.19995 5.94922C6.19995 6.14813 6.27897 6.3389 6.41962 6.47955C6.56027 6.6202 6.75104 6.69922 6.94995 6.69922Z"/>
</g>
<defs>
<clipPath id="aclip0_121_26938">
<rect width="16" height="16" transform="translate(0.699951 0.699219)"/>
</clipPath>
</defs>
</symbol><symbol viewBox="0 0 17 17" id="check" xmlns="http://www.w3.org/2000/svg">
<g clip-path="url(#bclip0_121_26944)">
<path d="M8.5 15.6992C6.64348 15.6992 4.86301 14.9617 3.55025 13.649C2.2375 12.3362 1.5 10.5557 1.5 8.69922C1.5 6.8427 2.2375 5.06223 3.55025 3.74947C4.86301 2.43672 6.64348 1.69922 8.5 1.69922C10.3565 1.69922 12.137 2.43672 13.4497 3.74947C14.7625 5.06223 15.5 6.8427 15.5 8.69922C15.5 10.5557 14.7625 12.3362 13.4497 13.649C12.137 14.9617 10.3565 15.6992 8.5 15.6992ZM8.5 16.6992C10.6217 16.6992 12.6566 15.8564 14.1569 14.3561C15.6571 12.8558 16.5 10.821 16.5 8.69922C16.5 6.57749 15.6571 4.54266 14.1569 3.04236C12.6566 1.54207 10.6217 0.699219 8.5 0.699219C6.37827 0.699219 4.34344 1.54207 2.84315 3.04236C1.34285 4.54266 0.5 6.57749 0.5 8.69922C0.5 10.821 1.34285 12.8558 2.84315 14.3561C4.34344 15.8564 6.37827 16.6992 8.5 16.6992Z"/>
<path d="M11.47 5.66922C11.4629 5.67612 11.4562 5.68347 11.45 5.69122L7.977 10.1162L5.884 8.02222C5.74182 7.88974 5.55378 7.81762 5.35948 7.82104C5.16518 7.82447 4.97979 7.90318 4.84238 8.0406C4.70497 8.17801 4.62625 8.3634 4.62283 8.5577C4.6194 8.752 4.69152 8.94004 4.824 9.08222L7.47 11.7292C7.54128 11.8004 7.62616 11.8564 7.71958 11.8941C7.813 11.9317 7.91305 11.9501 8.01375 11.9483C8.11444 11.9464 8.21374 11.9243 8.3057 11.8832C8.39766 11.8421 8.4804 11.783 8.549 11.7092L12.541 6.71922C12.6769 6.57655 12.7512 6.38612 12.7479 6.18909C12.7445 5.99206 12.6638 5.80427 12.5231 5.66631C12.3823 5.52836 12.193 5.45133 11.9959 5.45187C11.7989 5.45241 11.61 5.53049 11.47 5.66922Z"/>
</g>
<defs>
<clipPath id="bclip0_121_26944">
<rect width="16" height="16" transform="translate(0.5 0.699219)"/>
</clipPath>
</defs>
</symbol><symbol viewBox="0 0 18 21" id="control" xmlns="http://www.w3.org/2000/svg">
<path fill-rule="evenodd" clip-rule="evenodd" d="M8.99995 4.49964C10.6209 4.50027 12.1981 5.02604 13.4951 5.9982C14.7922 6.97036 15.7394 8.3366 16.1949 9.89226C16.6504 11.4479 16.5896 13.1093 16.0216 14.6275C15.4537 16.1457 14.4091 17.439 13.0445 18.3138C11.6798 19.1886 10.0684 19.5976 8.45176 19.4798C6.83508 19.3619 5.3001 18.7235 4.07672 17.66C2.85334 16.5966 2.00742 15.1655 1.66566 13.5809C1.32389 11.9964 1.50468 10.3438 2.18095 8.87064C2.25456 8.69153 2.25604 8.4909 2.18508 8.31072C2.11412 8.13055 1.97623 7.98481 1.80026 7.90399C1.62428 7.82317 1.42387 7.81355 1.24097 7.87714C1.05806 7.94073 0.90684 8.07259 0.81895 8.24514C0.00746536 10.013 -0.209397 11.9962 0.200846 13.8977C0.611089 15.7992 1.62635 17.5166 3.09456 18.7926C4.56277 20.0687 6.40489 20.8347 8.34499 20.9759C10.2851 21.1171 12.2187 20.626 13.8562 19.576C15.4938 18.5261 16.7471 16.9738 17.4284 15.1518C18.1097 13.3298 18.1823 11.3361 17.6354 9.46931C17.0885 7.60254 15.9515 5.96321 14.3947 4.79687C12.8379 3.63053 10.9452 2.99997 8.99995 2.99964V4.49964Z"/>
<path d="M8.99995 6.69864V0.800641C8.99992 0.729386 8.9796 0.659613 8.94135 0.599493C8.9031 0.539372 8.84852 0.491394 8.78399 0.461175C8.71946 0.430956 8.64765 0.419747 8.57698 0.428862C8.50631 0.437977 8.4397 0.467037 8.38495 0.512641L4.84495 3.46164C4.80275 3.49683 4.76879 3.54087 4.74549 3.59064C4.7222 3.64041 4.71012 3.69469 4.71012 3.74964C4.71012 3.80459 4.7222 3.85887 4.74549 3.90864C4.76879 3.95841 4.80275 4.00245 4.84495 4.03764L8.38495 6.98664C8.4397 7.03224 8.50631 7.06131 8.57698 7.07042C8.64765 7.07953 8.71946 7.06833 8.78399 7.03811C8.84852 7.00789 8.9031 6.95991 8.94135 6.89979C8.9796 6.83967 8.99992 6.7699 8.99995 6.69864Z"/>
</symbol><symbol viewBox="0 0 33 32" id="h1" xmlns="http://www.w3.org/2000/svg">
<path d="M12.3335 2H2.3335V30H12.3335V2ZM30.3335 2H20.3335V12H30.3335V2ZM30.3335 20V30H20.3335V20H30.3335ZM0.333496 2C0.333496 1.46957 0.54421 0.960859 0.919283 0.585786C1.29436 0.210714 1.80306 0 2.3335 0L12.3335 0C12.8639 0 13.3726 0.210714 13.7477 0.585786C14.1228 0.960859 14.3335 1.46957 14.3335 2V30C14.3335 30.5304 14.1228 31.0391 13.7477 31.4142C13.3726 31.7893 12.8639 32 12.3335 32H2.3335C1.80306 32 1.29436 31.7893 0.919283 31.4142C0.54421 31.0391 0.333496 30.5304 0.333496 30V2ZM18.3335 2C18.3335 1.46957 18.5442 0.960859 18.9193 0.585786C19.2944 0.210714 19.8031 0 20.3335 0L30.3335 0C30.8639 0 31.3726 0.210714 31.7477 0.585786C32.1228 0.960859 32.3335 1.46957 32.3335 2V12C32.3335 12.5304 32.1228 13.0391 31.7477 13.4142C31.3726 13.7893 30.8639 14 30.3335 14H20.3335C19.8031 14 19.2944 13.7893 18.9193 13.4142C18.5442 13.0391 18.3335 12.5304 18.3335 12V2ZM20.3335 18C19.8031 18 19.2944 18.2107 18.9193 18.5858C18.5442 18.9609 18.3335 19.4696 18.3335 20V30C18.3335 30.5304 18.5442 31.0391 18.9193 31.4142C19.2944 31.7893 19.8031 32 20.3335 32H30.3335C30.8639 32 31.3726 31.7893 31.7477 31.4142C32.1228 31.0391 32.3335 30.5304 32.3335 30V20C32.3335 19.4696 32.1228 18.9609 31.7477 18.5858C31.3726 18.2107 30.8639 18 30.3335 18H20.3335Z"/>
</symbol><symbol viewBox="0 0 32 32" id="h2" xmlns="http://www.w3.org/2000/svg">
<path d="M16 10C16.394 10 16.7841 9.92241 17.1481 9.77165C17.512 9.62088 17.8428 9.3999 18.1213 9.12133C18.3999 8.84275 18.6209 8.51204 18.7716 8.14806C18.9224 7.78408 19 7.39397 19 7.00001C19 6.60604 18.9224 6.21593 18.7716 5.85196C18.6209 5.48798 18.3999 5.15726 18.1213 4.87869C17.8428 4.60011 17.512 4.37913 17.1481 4.22837C16.7841 4.0776 16.394 4.00001 16 4.00001C15.2044 4.00001 14.4413 4.31608 13.8787 4.87869C13.3161 5.4413 13 6.20436 13 7.00001C13 7.79566 13.3161 8.55872 13.8787 9.12133C14.4413 9.68394 15.2044 10 16 10ZM24 16C24.7957 16 25.5587 15.6839 26.1213 15.1213C26.6839 14.5587 27 13.7957 27 13C27 12.2044 26.6839 11.4413 26.1213 10.8787C25.5587 10.3161 24.7957 10 24 10C23.2044 10 22.4413 10.3161 21.8787 10.8787C21.3161 11.4413 21 12.2044 21 13C21 13.7957 21.3161 14.5587 21.8787 15.1213C22.4413 15.6839 23.2044 16 24 16ZM11 14C11 14.7957 10.6839 15.5587 10.1213 16.1213C9.55872 16.6839 8.79566 17 8.00001 17C7.20436 17 6.4413 16.6839 5.87869 16.1213C5.31608 15.5587 5.00001 14.7957 5.00001 14C5.00001 13.2044 5.31608 12.4413 5.87869 11.8787C6.4413 11.3161 7.20436 11 8.00001 11C8.79566 11 9.55872 11.3161 10.1213 11.8787C10.6839 12.4413 11 13.2044 11 14ZM12 26C12.7957 26 13.5587 25.6839 14.1213 25.1213C14.6839 24.5587 15 23.7957 15 23C15 22.2044 14.6839 21.4413 14.1213 20.8787C13.5587 20.3161 12.7957 20 12 20C11.2044 20 10.4413 20.3161 9.87869 20.8787C9.31608 21.4413 9.00001 22.2044 9.00001 23C9.00001 23.7957 9.31608 24.5587 9.87869 25.1213C10.4413 25.6839 11.2044 26 12 26Z"/>
<path d="M32 16C32 22.3 28.268 21.17 24.866 20.14C22.84 19.526 20.93 18.946 20 20C18.794 21.366 19.05 23.638 19.298 25.84C19.652 28.99 19.992 32 16 32C12.8355 32 9.74207 31.0616 7.11088 29.3035C4.4797 27.5454 2.42894 25.0466 1.21793 22.1229C0.0069325 19.1993 -0.309921 15.9823 0.307443 12.8786C0.924806 9.77487 2.44866 6.92394 4.6863 4.6863C6.92394 2.44866 9.77487 0.924806 12.8786 0.307443C15.9823 -0.309921 19.1993 0.0069325 22.1229 1.21793C25.0466 2.42894 27.5454 4.4797 29.3035 7.11088C31.0616 9.74207 32 12.8355 32 16ZM16 30C17.222 30 17.308 29.658 17.31 29.648C17.466 29.356 17.558 28.72 17.45 27.41C17.422 27.074 17.376 26.67 17.328 26.228C17.224 25.3 17.104 24.218 17.092 23.304C17.072 21.89 17.258 20.084 18.5 18.676C19.238 17.842 20.19 17.52 21.044 17.44C21.852 17.364 22.668 17.492 23.364 17.648C24.05 17.802 24.768 18.02 25.414 18.216L25.47 18.232C26.162 18.442 26.786 18.63 27.376 18.764C28.682 19.06 29.184 18.93 29.358 18.812C29.434 18.76 30 18.322 30 16C30 13.2311 29.1789 10.5243 27.6406 8.22202C26.1022 5.91974 23.9157 4.12532 21.3576 3.06569C18.7994 2.00607 15.9845 1.72882 13.2687 2.26901C10.553 2.80921 8.05845 4.14258 6.10051 6.10051C4.14258 8.05845 2.80921 10.553 2.26901 13.2687C1.72882 15.9845 2.00607 18.7994 3.06569 21.3576C4.12532 23.9157 5.91974 26.1022 8.22202 27.6406C10.5243 29.1789 13.2311 30 16 30Z"/>
</symbol><symbol viewBox="0 0 33 32" id="h3" xmlns="http://www.w3.org/2000/svg">
<g clip-path="url(#fclip0_21_28602)">
<path d="M9.47899 2.684C11.478 0.96027 14.0275 0.00827703 16.667 0C22.047 0 26.513 4 26.999 9.158C30.183 9.608 32.667 12.274 32.667 15.546C32.667 19.138 29.671 22 26.041 22H20.667C20.4018 22 20.1474 21.8946 19.9599 21.7071C19.7723 21.5196 19.667 21.2652 19.667 21C19.667 20.7348 19.7723 20.4804 19.9599 20.2929C20.1474 20.1054 20.4018 20 20.667 20H26.043C28.625 20 30.667 17.976 30.667 15.546C30.667 13.114 28.627 11.09 26.041 11.09H25.041V10.09C25.043 5.65 21.323 2 16.667 2C14.5067 2.00863 12.4207 2.78887 10.785 4.2C9.27099 5.504 8.47899 7.076 8.47899 8.31V9.206L7.58899 9.304C4.79499 9.61 2.66699 11.904 2.66699 14.636C2.66699 17.57 5.12699 20 8.22899 20H12.667C12.9322 20 13.1866 20.1054 13.3741 20.2929C13.5616 20.4804 13.667 20.7348 13.667 21C13.667 21.2652 13.5616 21.5196 13.3741 21.7071C13.1866 21.8946 12.9322 22 12.667 22H8.22899C4.08299 22 0.666992 18.732 0.666992 14.636C0.666992 11.11 3.19899 8.19 6.55099 7.45C6.83699 5.724 7.94699 4.004 9.47899 2.684Z"/>
<path d="M15.959 31.708C16.0519 31.8011 16.1622 31.875 16.2837 31.9254C16.4052 31.9758 16.5355 32.0018 16.667 32.0018C16.7985 32.0018 16.9288 31.9758 17.0503 31.9254C17.1717 31.875 17.2821 31.8011 17.375 31.708L23.375 25.708C23.5628 25.5202 23.6683 25.2656 23.6683 25C23.6683 24.7344 23.5628 24.4798 23.375 24.292C23.1872 24.1042 22.9325 23.9987 22.667 23.9987C22.4014 23.9987 22.1468 24.1042 21.959 24.292L17.667 28.586V11C17.667 10.7348 17.5616 10.4804 17.3741 10.2929C17.1866 10.1054 16.9322 10 16.667 10C16.4018 10 16.1474 10.1054 15.9599 10.2929C15.7723 10.4804 15.667 10.7348 15.667 11V28.586L11.375 24.292C11.1872 24.1042 10.9325 23.9987 10.667 23.9987C10.4014 23.9987 10.1468 24.1042 9.95899 24.292C9.77122 24.4798 9.66573 24.7344 9.66573 25C9.66573 25.2656 9.77122 25.5202 9.95899 25.708L15.959 31.708Z"/>
</g>
<defs>
<clipPath id="fclip0_21_28602">
<rect width="32" height="32" transform="translate(0.666992)"/>
</clipPath>
</defs>
</symbol><symbol viewBox="0 0 17 16" id="plus" xmlns="http://www.w3.org/2000/svg">
<g clip-path="url(#hclip0_11_25743)">
<rect width="16" height="16" transform="translate(0.5)" fill-opacity="0.01"/>
<g clip-path="url(#hclip1_11_25743)">
<path d="M14.4995 1C14.7647 1 15.0191 1.10536 15.2066 1.29289C15.3942 1.48043 15.4995 1.73478 15.4995 2V14C15.4995 14.2652 15.3942 14.5196 15.2066 14.7071C15.0191 14.8946 14.7647 15 14.4995 15H2.49951C2.2343 15 1.97994 14.8946 1.7924 14.7071C1.60487 14.5196 1.49951 14.2652 1.49951 14V2C1.49951 1.73478 1.60487 1.48043 1.7924 1.29289C1.97994 1.10536 2.2343 1 2.49951 1H14.4995ZM2.49951 0C1.96908 0 1.46037 0.210714 1.0853 0.585786C0.710225 0.960859 0.499512 1.46957 0.499512 2V14C0.499512 14.5304 0.710225 15.0391 1.0853 15.4142C1.46037 15.7893 1.96908 16 2.49951 16H14.4995C15.0299 16 15.5387 15.7893 15.9137 15.4142C16.2888 15.0391 16.4995 14.5304 16.4995 14V2C16.4995 1.46957 16.2888 0.960859 15.9137 0.585786C15.5387 0.210714 15.0299 0 14.4995 0H2.49951Z"/>
<path d="M8.49951 4C8.63212 4 8.7593 4.05268 8.85307 4.14645C8.94683 4.24021 8.99951 4.36739 8.99951 4.5V7.5H11.9995C12.1321 7.5 12.2593 7.55268 12.3531 7.64645C12.4468 7.74021 12.4995 7.86739 12.4995 8C12.4995 8.13261 12.4468 8.25979 12.3531 8.35355C12.2593 8.44732 12.1321 8.5 11.9995 8.5H8.99951V11.5C8.99951 11.6326 8.94683 11.7598 8.85307 11.8536C8.7593 11.9473 8.63212 12 8.49951 12C8.3669 12 8.23973 11.9473 8.14596 11.8536C8.05219 11.7598 7.99951 11.6326 7.99951 11.5V8.5H4.99951C4.8669 8.5 4.73973 8.44732 4.64596 8.35355C4.55219 8.25979 4.49951 8.13261 4.49951 8C4.49951 7.86739 4.55219 7.74021 4.64596 7.64645C4.73973 7.55268 4.8669 7.5 4.99951 7.5H7.99951V4.5C7.99951 4.36739 8.05219 4.24021 8.14596 4.14645C8.23973 4.05268 8.3669 4 8.49951 4Z"/>
</g>
</g>
<defs>
<clipPath id="hclip0_11_25743">
<rect width="16" height="16" transform="translate(0.5)"/>
</clipPath>
<clipPath id="hclip1_11_25743">
<rect width="16" height="16" transform="translate(0.5)"/>
</clipPath>
</defs>
</symbol><symbol viewBox="0 0 16 17" id="plus-circle" xmlns="http://www.w3.org/2000/svg">
<path d="M16 8.40039C16 10.5221 15.1571 12.557 13.6569 14.0572C12.1566 15.5575 10.1217 16.4004 8 16.4004C5.87827 16.4004 3.84344 15.5575 2.34315 14.0572C0.842855 12.557 0 10.5221 0 8.40039C0 6.27866 0.842855 4.24383 2.34315 2.74354C3.84344 1.24325 5.87827 0.400391 8 0.400391C10.1217 0.400391 12.1566 1.24325 13.6569 2.74354C15.1571 4.24383 16 6.27866 16 8.40039ZM8.5 4.90039C8.5 4.76778 8.44732 4.64061 8.35355 4.54684C8.25979 4.45307 8.13261 4.40039 8 4.40039C7.86739 4.40039 7.74021 4.45307 7.64645 4.54684C7.55268 4.64061 7.5 4.76778 7.5 4.90039V7.90039H4.5C4.36739 7.90039 4.24021 7.95307 4.14645 8.04684C4.05268 8.14061 4 8.26778 4 8.40039C4 8.533 4.05268 8.66018 4.14645 8.75394C4.24021 8.84771 4.36739 8.90039 4.5 8.90039H7.5V11.9004C7.5 12.033 7.55268 12.1602 7.64645 12.2539C7.74021 12.3477 7.86739 12.4004 8 12.4004C8.13261 12.4004 8.25979 12.3477 8.35355 12.2539C8.44732 12.1602 8.5 12.033 8.5 11.9004V8.90039H11.5C11.6326 8.90039 11.7598 8.84771 11.8536 8.75394C11.9473 8.66018 12 8.533 12 8.40039C12 8.26778 11.9473 8.14061 11.8536 8.04684C11.7598 7.95307 11.6326 7.90039 11.5 7.90039H8.5V4.90039Z"/>
</symbol><symbol viewBox="0 0 20 20" id="prev" xmlns="http://www.w3.org/2000/svg">
<g clip-path="url(#iclip0_122_27151)">
<path fill-rule="evenodd" clip-rule="evenodd" d="M1.25 10C1.25 12.3206 2.17187 14.5462 3.81282 16.1872C5.45376 17.8281 7.67936 18.75 10 18.75C12.3206 18.75 14.5462 17.8281 16.1872 16.1872C17.8281 14.5462 18.75 12.3206 18.75 10C18.75 7.67936 17.8281 5.45376 16.1872 3.81282C14.5462 2.17187 12.3206 1.25 10 1.25C7.67936 1.25 5.45376 2.17187 3.81282 3.81282C2.17187 5.45376 1.25 7.67936 1.25 10V10ZM20 10C20 12.6522 18.9464 15.1957 17.0711 17.0711C15.1957 18.9464 12.6522 20 10 20C7.34784 20 4.8043 18.9464 2.92893 17.0711C1.05357 15.1957 0 12.6522 0 10C0 7.34784 1.05357 4.8043 2.92893 2.92893C4.8043 1.05357 7.34784 0 10 0C12.6522 0 15.1957 1.05357 17.0711 2.92893C18.9464 4.8043 20 7.34784 20 10V10ZM14.375 9.375C14.5408 9.375 14.6997 9.44085 14.8169 9.55806C14.9342 9.67527 15 9.83424 15 10C15 10.1658 14.9342 10.3247 14.8169 10.4419C14.6997 10.5592 14.5408 10.625 14.375 10.625H7.13375L9.8175 13.3075C9.87561 13.3656 9.92171 13.4346 9.95315 13.5105C9.9846 13.5864 10.0008 13.6678 10.0008 13.75C10.0008 13.8322 9.9846 13.9136 9.95315 13.9895C9.92171 14.0654 9.87561 14.1344 9.8175 14.1925C9.75939 14.2506 9.6904 14.2967 9.61448 14.3282C9.53856 14.3596 9.45718 14.3758 9.375 14.3758C9.29282 14.3758 9.21144 14.3596 9.13552 14.3282C9.0596 14.2967 8.99061 14.2506 8.9325 14.1925L5.1825 10.4425C5.1243 10.3844 5.07812 10.3155 5.04661 10.2395C5.0151 10.1636 4.99888 10.0822 4.99888 10C4.99888 9.91779 5.0151 9.83639 5.04661 9.76046C5.07812 9.68453 5.1243 9.61556 5.1825 9.5575L8.9325 5.8075C9.04986 5.69014 9.20903 5.62421 9.375 5.62421C9.54097 5.62421 9.70014 5.69014 9.8175 5.8075C9.93486 5.92486 10.0008 6.08403 10.0008 6.25C10.0008 6.41597 9.93486 6.57514 9.8175 6.6925L7.13375 9.375H14.375Z"/>
</g>
<defs>
<clipPath id="iclip0_122_27151">
<rect width="20" height="20"/>
</clipPath>
</defs>
</symbol><symbol viewBox="0 0 16 17" id="remove" xmlns="http://www.w3.org/2000/svg">
<g clip-path="url(#jclip0_61_17658)">
<path d="M6.5 1.40039H9.5C9.63261 1.40039 9.75979 1.45307 9.85355 1.54684C9.94732 1.64061 10 1.76778 10 1.90039V2.90039H6V1.90039C6 1.76778 6.05268 1.64061 6.14645 1.54684C6.24021 1.45307 6.36739 1.40039 6.5 1.40039V1.40039ZM11 2.90039V1.90039C11 1.50257 10.842 1.12104 10.5607 0.83973C10.2794 0.558426 9.89782 0.400391 9.5 0.400391L6.5 0.400391C6.10218 0.400391 5.72064 0.558426 5.43934 0.83973C5.15804 1.12104 5 1.50257 5 1.90039V2.90039H2.506C2.50267 2.90036 2.49933 2.90036 2.496 2.90039H1.5C1.36739 2.90039 1.24021 2.95307 1.14645 3.04684C1.05268 3.14061 1 3.26778 1 3.40039C1 3.533 1.05268 3.66018 1.14645 3.75394C1.24021 3.84771 1.36739 3.90039 1.5 3.90039H2.038L2.891 14.5604C2.93122 15.0616 3.15875 15.5292 3.52827 15.8702C3.8978 16.2112 4.38219 16.4005 4.885 16.4004H11.115C11.6178 16.4005 12.1022 16.2112 12.4717 15.8702C12.8412 15.5292 13.0688 15.0616 13.109 14.5604L13.962 3.90039H14.5C14.6326 3.90039 14.7598 3.84771 14.8536 3.75394C14.9473 3.66018 15 3.533 15 3.40039C15 3.26778 14.9473 3.14061 14.8536 3.04684C14.7598 2.95307 14.6326 2.90039 14.5 2.90039H13.505C13.5017 2.90036 13.4983 2.90036 13.495 2.90039H11ZM12.958 3.90039L12.112 14.4804C12.0919 14.731 11.9781 14.9648 11.7934 15.1353C11.6086 15.3058 11.3664 15.4004 11.115 15.4004H4.885C4.6336 15.4004 4.3914 15.3058 4.20664 15.1353C4.02188 14.9648 3.90811 14.731 3.888 14.4804L3.042 3.90039H12.958ZM5.471 4.90039C5.60333 4.89274 5.73329 4.93795 5.8323 5.02609C5.93131 5.11422 5.99127 5.23806 5.999 5.37039L6.499 13.8704C6.50425 14.0012 6.45802 14.1288 6.37022 14.2259C6.28242 14.3229 6.16006 14.3817 6.02941 14.3896C5.89876 14.3974 5.77024 14.3537 5.67144 14.2679C5.57265 14.182 5.51145 14.0609 5.501 13.9304L5 5.43039C4.99594 5.3647 5.00489 5.29886 5.02633 5.23664C5.04777 5.17442 5.08129 5.11704 5.12495 5.0678C5.16862 5.01856 5.22158 4.97843 5.28079 4.9497C5.34 4.92097 5.4043 4.90421 5.47 4.90039H5.471ZM10.529 4.90039C10.5947 4.90421 10.659 4.92097 10.7182 4.9497C10.7774 4.97843 10.8304 5.01856 10.874 5.0678C10.9177 5.11704 10.9512 5.17442 10.9727 5.23664C10.9941 5.29886 11.0031 5.3647 10.999 5.43039L10.499 13.9304C10.4963 13.9968 10.4804 14.0621 10.4522 14.1223C10.424 14.1825 10.3841 14.2365 10.3348 14.2811C10.2855 14.3257 10.2278 14.3601 10.165 14.3821C10.1023 14.4041 10.0358 14.4134 9.9694 14.4094C9.90302 14.4054 9.8381 14.3882 9.77845 14.3589C9.7188 14.3295 9.6656 14.2885 9.62199 14.2383C9.57837 14.1881 9.5452 14.1297 9.52443 14.0665C9.50365 14.0034 9.49569 13.9367 9.501 13.8704L10.001 5.37039C10.0087 5.23806 10.0687 5.11422 10.1677 5.02609C10.2667 4.93795 10.3967 4.89274 10.529 4.90039V4.90039ZM8 4.90039C8.13261 4.90039 8.25979 4.95307 8.35355 5.04684C8.44732 5.14061 8.5 5.26778 8.5 5.40039V13.9004C8.5 14.033 8.44732 14.1602 8.35355 14.2539C8.25979 14.3477 8.13261 14.4004 8 14.4004C7.86739 14.4004 7.74021 14.3477 7.64645 14.2539C7.55268 14.1602 7.5 14.033 7.5 13.9004V5.40039C7.5 5.26778 7.55268 5.14061 7.64645 5.04684C7.74021 4.95307 7.86739 4.90039 8 4.90039V4.90039Z"/>
</g>
<defs>
<clipPath id="jclip0_61_17658">
<rect width="16" height="16" transform="translate(0 0.400391)"/>
</clipPath>
</defs>
</symbol><symbol viewBox="0 0 20 20" id="search" xmlns="http://www.w3.org/2000/svg">
<path d="M14.6775 12.9296C15.8879 11.278 16.43 9.23025 16.1954 7.19607C15.9608 5.1619 14.9668 3.29131 13.4122 1.95855C11.8577 0.625789 9.85721 -0.0708582 7.81107 0.00798323C5.76493 0.0868247 3.824 0.93534 2.37661 2.38377C0.929213 3.8322 0.0820868 5.77373 0.00470953 7.81993C-0.0726677 9.86613 0.62541 11.8661 1.95928 13.4197C3.29316 14.9733 5.16445 15.966 7.1988 16.1991C9.23314 16.4323 11.2805 15.8887 12.9313 14.6771H12.93C12.9675 14.7271 13.0075 14.7746 13.0525 14.8209L17.865 19.6334C18.0994 19.8679 18.4174 19.9998 18.749 19.9999C19.0805 20 19.3986 19.8684 19.6331 19.634C19.8677 19.3996 19.9995 19.0817 19.9997 18.7501C19.9998 18.4185 19.8682 18.1004 19.6338 17.8659L14.8213 13.0534C14.7766 13.0081 14.7285 12.9664 14.6775 12.9284V12.9296ZM15 8.12464C15 9.02748 14.8222 9.92147 14.4767 10.7556C14.1312 11.5897 13.6248 12.3476 12.9864 12.986C12.348 13.6244 11.5901 14.1308 10.756 14.4763C9.92186 14.8218 9.02786 14.9996 8.12502 14.9996C7.22219 14.9996 6.32819 14.8218 5.49407 14.4763C4.65996 14.1308 3.90207 13.6244 3.26366 12.986C2.62526 12.3476 2.11885 11.5897 1.77335 10.7556C1.42785 9.92147 1.25002 9.02748 1.25002 8.12464C1.25002 6.30127 1.97435 4.55259 3.26366 3.26328C4.55298 1.97397 6.30166 1.24964 8.12502 1.24964C9.94839 1.24964 11.6971 1.97397 12.9864 3.26328C14.2757 4.55259 15 6.30127 15 8.12464Z"/>
</symbol><symbol viewBox="0 0 24 16" id="switch" xmlns="http://www.w3.org/2000/svg">
<path d="M16.5 2.40039C18.0913 2.40039 19.6174 3.03253 20.7426 4.15775C21.8679 5.28297 22.5 6.80909 22.5 8.40039C22.5 9.99169 21.8679 11.5178 20.7426 12.643C19.6174 13.7682 18.0913 14.4004 16.5 14.4004H12C12.9322 13.7024 13.6887 12.7967 14.2095 11.7551C14.7303 10.7136 15.0009 9.56489 15 8.40039C15.0009 7.23589 14.7303 6.08722 14.2095 5.04565C13.6887 4.00409 12.9322 3.09835 12 2.40039H16.5ZM7.5 14.4004C5.9087 14.4004 4.38258 13.7682 3.25736 12.643C2.13214 11.5178 1.5 9.99169 1.5 8.40039C1.5 6.80909 2.13214 5.28297 3.25736 4.15775C4.38258 3.03253 5.9087 2.40039 7.5 2.40039C9.0913 2.40039 10.6174 3.03253 11.7426 4.15775C12.8679 5.28297 13.5 6.80909 13.5 8.40039C13.5 9.99169 12.8679 11.5178 11.7426 12.643C10.6174 13.7682 9.0913 14.4004 7.5 14.4004ZM0 8.40039C0 10.3895 0.790176 12.2972 2.1967 13.7037C3.60322 15.1102 5.51088 15.9004 7.5 15.9004H16.5C18.4891 15.9004 20.3968 15.1102 21.8033 13.7037C23.2098 12.2972 24 10.3895 24 8.40039C24 6.41127 23.2098 4.50361 21.8033 3.09709C20.3968 1.69057 18.4891 0.900391 16.5 0.900391H7.5C5.51088 0.900391 3.60322 1.69057 2.1967 3.09709C0.790176 4.50361 0 6.41127 0 8.40039H0Z"/>
</symbol><symbol viewBox="0 0 17 17" id="upload" xmlns="http://www.w3.org/2000/svg">
<g clip-path="url(#mclip0_121_26941)">
<path d="M0.599854 10.6001C0.732462 10.6001 0.859639 10.6528 0.953407 10.7466C1.04718 10.8403 1.09985 10.9675 1.09985 11.1001V13.6001C1.09985 13.8653 1.20521 14.1197 1.39275 14.3072C1.58028 14.4948 1.83464 14.6001 2.09985 14.6001H14.0999C14.3651 14.6001 14.6194 14.4948 14.807 14.3072C14.9945 14.1197 15.0999 13.8653 15.0999 13.6001V11.1001C15.0999 10.9675 15.1525 10.8403 15.2463 10.7466C15.3401 10.6528 15.4672 10.6001 15.5999 10.6001C15.7325 10.6001 15.8596 10.6528 15.9534 10.7466C16.0472 10.8403 16.0999 10.9675 16.0999 11.1001V13.6001C16.0999 14.1305 15.8891 14.6393 15.5141 15.0143C15.139 15.3894 14.6303 15.6001 14.0999 15.6001H2.09985C1.56942 15.6001 1.06071 15.3894 0.68564 15.0143C0.310567 14.6393 0.0998535 14.1305 0.0998535 13.6001V11.1001C0.0998535 10.9675 0.152532 10.8403 0.2463 10.7466C0.340068 10.6528 0.467245 10.6001 0.599854 10.6001Z"/>
<path d="M7.74585 1.84611C7.7923 1.79955 7.84747 1.76261 7.90822 1.7374C7.96897 1.71219 8.03409 1.69922 8.09985 1.69922C8.16562 1.69922 8.23074 1.71219 8.29149 1.7374C8.35223 1.76261 8.40741 1.79955 8.45385 1.84611L11.4539 4.84611C11.5477 4.94 11.6005 5.06734 11.6005 5.20011C11.6005 5.33289 11.5477 5.46023 11.4539 5.55411C11.36 5.648 11.2326 5.70074 11.0999 5.70074C10.9671 5.70074 10.8397 5.648 10.7459 5.55411L8.59985 3.40711V12.2001C8.59985 12.3327 8.54718 12.4599 8.45341 12.5537C8.35964 12.6474 8.23246 12.7001 8.09985 12.7001C7.96725 12.7001 7.84007 12.6474 7.7463 12.5537C7.65253 12.4599 7.59985 12.3327 7.59985 12.2001V3.40711L5.45385 5.55411C5.40737 5.6006 5.35218 5.63748 5.29144 5.66264C5.2307 5.6878 5.1656 5.70074 5.09985 5.70074C5.03411 5.70074 4.96901 5.6878 4.90827 5.66264C4.84753 5.63748 4.79234 5.6006 4.74585 5.55411C4.69937 5.50762 4.66249 5.45244 4.63733 5.3917C4.61217 5.33096 4.59922 5.26586 4.59922 5.20011C4.59922 5.13437 4.61217 5.06927 4.63733 5.00853C4.66249 4.94779 4.69937 4.8926 4.74585 4.84611L7.74585 1.84611Z"/>
</g>
<defs>
<clipPath id="mclip0_121_26941">
<rect width="16" height="16" transform="translate(0.0998535 0.699219)"/>
</clipPath>
</defs>
</symbol></svg>